{"title":"Formula.1.2016x13.Belgium.Teds.Qualifying.Notebook.SkyF1HD.1080p","uid":15713623,"size":1341932008,"categoryP":"video","categoryS":"other","magnet":"?xt=urn:btih:ae71d2266d1bd7fae032660971a99819033b3d4c&amp;dn=Formula.1.2016x13.Belgium.Teds.Qualifying.Notebook.SkyF1HD.1080p&amp;tr=udp%3A%2F%2Ftracker.leechers-paradise.org%3A6969&amp;tr=udp%3A%2F%2Fzer0day.ch%3A1337&amp;tr=udp%3A%2F%2Fopen.demonii.com%3A1337&amp;tr=udp%3A%2F%2Ftracker.coppersurfer.tk%3A6969&amp;tr=udp%3A%2F%2Fexodus.desync.com%3A6969","seeders":6,"leechers":1,"uploader":null,"files":1,"time":1472601281,"description":"Formula.1.2016x13.Belgium.Teds.Qualifying.Notebook.SkyF1HD.1080p50-smcgill1969\r\n\r\nTed Kravitz looks over all the action from qualifying at the Belgian Grand Prix at Circuit de Spa-Francorchamps.\r\n\r\n\r\n Video\r\n ID : 1\r\n Format : AVC\r\n Format/Info : Advanced Video Codec\r\n Format profile :   \r\n Format settings, CABAC : Yes\r\n Format settings, ReFrames : 2 frames\r\n Format settings, GOP : M=3, N=24\r\n Codec ID : avc1\r\n Codec ID/Info : Advanced Video Coding\r\n Duration : 28mn 42s\r\n Duration_FirstFrame : 1ms\r\n Bit rate mode : Variable\r\n Bit rate : 5 971 Kbps\r\n Maximum bit rate : 12.4 Mbps\r\n Width : 1 920 pixels\r\n Height : 1 080 pixels\r\n Original height : 1 088 pixels\r\n Display aspect ratio : 16:9\r\n Original display aspect ratio : 16:9\r\n Frame rate mode : Constant\r\n Frame rate : 50.000 fps\r\n Color space : YUV\r\n Chroma subsampling : 4:2:0\r\n Bit depth : 8 bits\r\n Scan type : Progressive\r\n Bits/(Pixel*Frame) : 0.058\r\n Stream size : 1.20 GiB (96%)\r\n Language : English\r\n Encoded date : UTC 2016-08-27 20:12:24\r\n Tagged date : UTC 2016-08-27 20:43:17\r\n\r\n Audio\r\n ID : 2\r\n Format : AAC\r\n Format/Info : Advanced Audio Codec\r\n Format profile : LC\r\n Codec ID : 40\r\n Duration : 28mn 41s\r\n Bit rate mode : Constant\r\n Bit rate : 256 Kbps\r\n Channel(s) : 2 channels\r\n Channel positions : Front: L R\r\n Sampling rate : 48.0 KHz\r\n Frame rate : 46.875 fps (1024 spf)\r\n Compression mode : Lossy\r\n Stream size : 52.0 MiB (4%)\r\n Language : English\r\n Encoded date : UTC 2016-08-27 20:12:24\r\n Tagged date : UTC 2016-08-27 20:43:17","torrent":{"xt":"urn:btih:ae71d2266d1bd7fae032660971a99819033b3d4c","amp;dn":"Formula.1.2016x13.Belgium.Teds.Qualifying.Notebook.SkyF1HD.1080p","amp;tr":["udp%3A%2F%2Ftracker.leechers-paradise.org%3A6969","udp%3A%2F%2Fzer0day.ch%3A1337","udp%3A%2F%2Fopen.demonii.com%3A1337","udp%3A%2F%2Ftracker.coppersurfer.tk%3A6969","udp%3A%2F%2Fexodus.desync.com%3A6969"],"infoHash":"ae71d2266d1bd7fae032660971a99819033b3d4c","infoHashBuffer":{"type":"Buffer","data":[174,113,210,38,109,27,215,250,224,50,102,9,113,169,152,25,3,59,61,76]},"announce":[],"urlList":[]}}